<svg width="281" height="70" viewBox="0 0 281 70" fill="none" xmlns="http://www.w3.org/2000/svg">
<path d="M81.2901 41.2246L78.3141 36.5719C77.7834 35.7475 77.35 35.2026 77.0146 34.9371C76.6793 34.6717 76.1625 34.5389 75.4638 34.5389H73.7661V41.2246H72.1314V34.5389H70.4338C69.7355 34.5389 69.2182 34.6717 68.8829 34.9371C68.5618 35.2026 68.1284 35.7475 67.5835 36.5719L64.6075 41.2246H62.7422L66.1164 36.006C66.6056 35.2515 66.9967 34.7136 67.2901 34.3922C67.5978 34.0569 67.9398 33.8264 68.317 33.7006C68.0236 33.5609 67.7373 33.3373 67.4578 33.0299C67.1786 32.7086 66.8081 32.2056 66.347 31.521L63.1194 26.5539H64.9847L67.814 30.9551C68.359 31.7934 68.7924 32.3453 69.1134 32.6108C69.4488 32.8623 69.966 32.988 70.6643 32.988H72.1314V26.5539H73.7661V32.988H75.2332C75.9458 32.988 76.463 32.8553 76.7841 32.5898C77.1194 32.3244 77.5529 31.7795 78.0835 30.9551L80.9129 26.5539H82.7781L79.5715 31.521C78.7332 32.7505 78.0768 33.4771 77.6015 33.7006C77.9649 33.8264 78.2931 34.0499 78.5865 34.3713C78.8942 34.6926 79.2991 35.2375 79.8021 36.006L83.1554 41.2246H81.2901Z" fill="#002040"/>
<path d="M96.1574 41.2246L93.1814 36.5719C92.6365 35.7475 92.1964 35.2026 91.861 34.9371C91.54 34.6717 91.0298 34.5389 90.3311 34.5389H87.9419V41.2246H86.3071V26.5539H87.9419V32.988H90.1005C90.7993 32.988 91.3094 32.8623 91.6305 32.6108C91.9658 32.3453 92.4059 31.7934 92.9509 30.9551L95.7802 26.5539H97.6455L94.4179 31.521C93.9568 32.2056 93.5867 32.7086 93.3071 33.0299C93.028 33.3373 92.7413 33.5609 92.4479 33.7006C92.8251 33.8264 93.1604 34.0569 93.4538 34.3922C93.7615 34.7136 94.1597 35.2515 94.6485 36.006L98.0227 41.2246H96.1574Z" fill="#002040"/>
<path d="M107.825 26.5539H113.483C114.489 26.5539 115.342 26.6866 116.04 26.9521C116.739 27.2036 117.249 27.5459 117.57 27.979C117.906 28.4122 118.136 28.8244 118.262 29.2156C118.388 29.6068 118.45 30.019 118.45 30.4521C118.45 32.017 117.807 33.0579 116.522 33.5749C117.291 33.7565 117.898 34.1617 118.346 34.7904C118.792 35.4052 119.016 36.1457 119.016 37.012C119.016 39.8204 117.207 41.2246 113.588 41.2246H107.825V26.5539ZM110.717 29.2784V32.4222H113.798C114.496 32.4222 114.992 32.2685 115.286 31.9611C115.579 31.6397 115.726 31.2695 115.726 30.8503C115.726 29.8024 115.083 29.2784 113.798 29.2784H110.717ZM110.717 34.9162V38.479H114.196C114.936 38.479 115.467 38.3184 115.789 37.997C116.124 37.6617 116.292 37.2286 116.292 36.6976C116.292 36.1946 116.117 35.7755 115.768 35.4401C115.432 35.0908 114.909 34.9162 114.196 34.9162H110.717Z" fill="#002040"/>
<path d="M123.321 28.6078C124.774 27.1407 126.534 26.4072 128.602 26.4072C130.67 26.4072 132.43 27.1407 133.884 28.6078C135.351 30.0609 136.084 31.8214 136.084 33.8892C136.084 35.9571 135.351 37.7245 133.884 39.1916C132.43 40.6447 130.67 41.3713 128.602 41.3713C126.534 41.3713 124.774 40.6447 123.321 39.1916C121.868 37.7245 121.141 35.9571 121.141 33.8892C121.141 31.8214 121.868 30.0609 123.321 28.6078ZM131.872 30.473C130.991 29.5789 129.902 29.1317 128.602 29.1317C127.303 29.1317 126.213 29.5789 125.333 30.473C124.466 31.3672 124.033 32.506 124.033 33.8892C124.033 35.2864 124.466 36.4321 125.333 37.3263C126.213 38.2066 127.303 38.6467 128.602 38.6467C129.915 38.6467 131.005 38.2066 131.872 37.3263C132.752 36.4321 133.192 35.2864 133.192 33.8892C133.192 32.506 132.752 31.3672 131.872 30.473Z" fill="#002040"/>
<path d="M142.437 32.3174H144.281C144.98 32.3174 145.476 32.1637 145.769 31.8563C146.063 31.5349 146.209 31.1647 146.209 30.7455C146.209 29.6696 145.525 29.1317 144.155 29.1317H144.051C143.464 29.1317 142.8 29.2645 142.06 29.5299C141.333 29.7954 140.704 30.1447 140.173 30.5778L138.287 28.8383C139.07 28.0978 139.957 27.511 140.949 27.0778C141.941 26.6307 142.94 26.4072 143.946 26.4072H144.092C144.847 26.4211 145.518 26.519 146.104 26.7006C146.705 26.8822 147.173 27.1128 147.509 27.3922C147.858 27.6577 148.144 27.972 148.368 28.3353C148.591 28.6986 148.738 29.0409 148.808 29.3623C148.892 29.6836 148.934 30.012 148.934 30.3473C148.934 31.1437 148.752 31.8423 148.389 32.4431C148.025 33.0439 147.543 33.4631 146.943 33.7006C147.697 33.8822 148.291 34.2804 148.724 34.8952C149.171 35.51 149.395 36.2505 149.395 37.1168C149.395 38.3882 148.955 39.4152 148.074 40.1976C147.208 40.9661 145.839 41.3573 143.967 41.3713H143.82C142.716 41.3713 141.654 41.1268 140.634 40.6377C139.615 40.1487 138.734 39.499 137.994 38.6886L139.88 36.9491C140.397 37.4521 141.025 37.8643 141.766 38.1856C142.521 38.493 143.24 38.6467 143.925 38.6467H144.03C145.776 38.6187 146.649 38.004 146.649 36.8024C146.649 36.2994 146.475 35.8802 146.125 35.5449C145.79 35.1956 145.266 35.021 144.554 35.021H142.437V32.3174Z" fill="#002040"/>
<path d="M152.469 26.5539H157.289C159.301 26.5539 160.894 27.0848 162.068 28.1467C163.241 29.1946 163.828 30.5429 163.828 32.1916C163.828 33.8543 163.241 35.2166 162.068 36.2784C160.894 37.3264 159.301 37.8503 157.289 37.8503H155.361V41.2246H152.469V26.5539ZM155.361 35.1258H157.52C158.539 35.1258 159.385 34.8813 160.056 34.3922C160.74 33.9032 161.082 33.1697 161.082 32.1916C161.082 31.2555 160.74 30.5359 160.056 30.0329C159.371 29.5299 158.526 29.2784 157.52 29.2784H155.361V35.1258Z" fill="#002040"/>
<path d="M168.231 28.6078C169.684 27.1407 171.444 26.4072 173.512 26.4072C175.58 26.4072 177.341 27.1407 178.794 28.6078C180.261 30.0609 180.994 31.8214 180.994 33.8892C180.994 35.9571 180.261 37.7245 178.794 39.1916C177.341 40.6447 175.58 41.3713 173.512 41.3713C171.444 41.3713 169.684 40.6447 168.231 39.1916C166.778 37.7245 166.051 35.9571 166.051 33.8892C166.051 31.8214 166.778 30.0609 168.231 28.6078ZM176.782 30.473C175.902 29.5789 174.812 29.1317 173.512 29.1317C172.213 29.1317 171.123 29.5789 170.243 30.473C169.376 31.3672 168.943 32.506 168.943 33.8892C168.943 35.2864 169.376 36.4321 170.243 37.3263C171.123 38.2066 172.213 38.6467 173.512 38.6467C174.826 38.6467 175.915 38.2066 176.782 37.3263C177.662 36.4321 178.102 35.2864 178.102 33.8892C178.102 32.506 177.662 31.3672 176.782 30.473Z" fill="#002040"/>
<path d="M199.877 41.2246L196.859 36.509C196.51 35.992 196.21 35.6427 195.958 35.4611C195.707 35.2795 195.344 35.1886 194.868 35.1886H194.072V41.2246H191.18V35.1886H190.383C189.895 35.1886 189.524 35.2795 189.273 35.4611C189.021 35.6427 188.728 35.992 188.392 36.509L185.374 41.2246H182.105L185.689 35.6287C186.359 34.5948 186.953 33.9591 187.47 33.7216C187.023 33.484 186.458 32.8972 185.773 31.9611L182.336 26.5539H185.605L188.476 31.0808C188.826 31.5978 189.126 31.9471 189.377 32.1287C189.629 32.3104 189.992 32.4012 190.467 32.4012H191.18V26.5539H194.072V32.4012H194.764C195.239 32.4012 195.602 32.3104 195.854 32.1287C196.119 31.9471 196.419 31.5978 196.755 31.0808L199.647 26.5539H202.916L199.458 31.9611C198.816 32.8693 198.257 33.4561 197.782 33.7216C198.299 33.9731 198.892 34.6088 199.563 35.6287L203.147 41.2246H199.877Z" fill="#002040"/>
<path d="M219.932 43.9281H217.04V41.2245H207.483V43.9281H204.591V38.5H206.54L211.444 26.5539H213.163L218.004 38.5H219.932V43.9281ZM212.261 31.8563L209.642 38.5H214.902L212.261 31.8563Z" fill="#002040"/>
<path d="M225.604 32.485H231.954V35.2096H225.604V38.5H232.478V41.2246H222.712V26.5539H232.478V29.2784H225.604V32.485Z" fill="#002040"/>
<path d="M247.06 41.2246H244.168V35.2096H238.488V41.2246H235.596V26.5539H238.488V32.485H244.168V26.5539H247.06V41.2246Z" fill="#002040"/>
<path d="M262.407 41.2246H259.515V31.982L252.557 41.2246H250.859V26.5539H253.752V35.7964L260.689 26.5539H262.407V41.2246Z" fill="#002040"/>
<path d="M269.286 32.485H275.637V35.2096H269.286V38.5H276.161V41.2246H266.394V26.5539H276.161V29.2784H269.286V32.485Z" fill="#002040"/>
<path d="M28.6646 37.2451V11.7365L23.6347 7.96407L15.2515 14.2515V41.3485C18.4597 40.1698 22.0651 39.1386 25.6388 38.1165C26.6532 37.8264 27.6651 37.5369 28.6646 37.2451Z" fill="#002040"/>
<path d="M28.2455 37.3671V11.4222L27.4072 10.7934V37.6095C27.6874 37.5288 27.9668 37.4481 28.2455 37.3671Z" fill="white"/>
<path d="M26.9877 37.7301V10.479L26.1494 9.8503V37.9704C26.4292 37.8903 26.7087 37.8102 26.9877 37.7301Z" fill="white"/>
<path d="M25.7304 38.0903V9.53592L24.8921 8.90718V38.3301C25.141 38.2589 25.39 38.1876 25.6388 38.1165C25.6693 38.1077 25.6999 38.099 25.7304 38.0903Z" fill="white"/>
<path d="M24.4731 38.4503V8.59282L23.6348 7.96407V38.6914C23.914 38.6108 24.1935 38.5305 24.4731 38.4503Z" fill="white"/>
<path d="M36.2095 34.7989V27.2455L32.4371 25.1497L25.7305 28.0838V38.0903C29.4183 37.0355 33.0684 35.9891 36.2095 34.7989Z" fill="#002040"/>
<path d="M35.7905 34.9558V27.0126L34.9521 26.5469V35.2589C35.235 35.1588 35.5146 35.0578 35.7905 34.9558Z" fill="white"/>
<path d="M34.5327 35.4056V26.3141L33.6943 25.8483V35.6908C33.9766 35.5965 34.2561 35.5015 34.5327 35.4056Z" fill="white"/>
<path d="M33.2753 35.8296V25.6154L32.437 25.1497V36.1008C32.7187 36.011 32.9982 35.9207 33.2753 35.8296Z" fill="white"/>
<path d="M20.7003 39.5548V24.7305L15.6703 21.7964L7.28711 26.4072V45.4325C10.3428 42.9712 15.3263 41.1773 20.7003 39.5548Z" fill="#002040"/>
<path d="M20.2812 39.6819V24.486L19.4429 23.997V39.9402C19.7209 39.8536 20.0005 39.7675 20.2812 39.6819Z" fill="white"/>
<path d="M16.5087 40.9004C16.2267 40.998 15.9471 41.0965 15.6704 41.1961V21.7964L16.5087 22.2854V40.9004Z" fill="white"/>
<path d="M17.7661 40.4765C17.4845 40.5691 17.205 40.6625 16.9277 40.7567V22.5299L17.7661 23.019V40.4765Z" fill="white"/>
<path d="M19.0239 40.0716C18.7428 40.1603 18.4632 40.2496 18.1855 40.3396V23.2635L19.0239 23.7525V40.0716Z" fill="white"/>
<path d="M20.2573 46.6875C20.2653 46.685 20.2734 46.682 20.2814 46.6791V46.7017L20.2573 46.6875Z" fill="white"/>
<path d="M51.0893 29.5509C50.01 45.0599 4.77205 43.8024 7.28698 58.0539C-8.8507 37.7246 43.2547 40.2395 45.4306 27.4551C47.1073 17.6048 23.4247 4.19162 23.4247 4.19162C23.4247 4.19162 51.9792 16.7665 51.0893 29.5509Z" fill="url(#paint0_linear_538_4286)"/>
<path d="M55.4909 33.1138C53.8586 50.2537 7.07786 50.9281 14.8323 65.8084C-5.28749 47.1557 49.911 47.994 52.9759 31.6467C54.3906 24.1018 47.5268 18.4431 47.5268 18.4431C47.5268 18.4431 56.3292 24.3114 55.4909 33.1138Z" fill="url(#paint1_linear_538_4286)"/>
<defs>
<linearGradient id="paint0_linear_538_4286" x1="27.6506" y1="4.19162" x2="27.6506" y2="58.0539" gradientUnits="userSpaceOnUse">
<stop stop-color="#409FFF"/>
<stop offset="1" stop-color="#007FFF"/>
</linearGradient>
<linearGradient id="paint1_linear_538_4286" x1="32.9887" y1="18.4431" x2="32.9887" y2="65.8084" gradientUnits="userSpaceOnUse">
<stop stop-color="#409FFF"/>
<stop offset="1" stop-color="#007FFF"/>
</linearGradient>
</defs>
</svg>
