<svg width="320" height="80" viewBox="0 0 320 80" fill="none" xmlns="http://www.w3.org/2000/svg">
<path d="M126.4 15.568H88.24L91.008 8H129.12L126.4 15.568ZM125.04 19.328H86.88L84.128 26.88H122.24L125.04 19.328ZM120.912 30.608H82.768L80 38.16H118.08L120.912 30.608Z" fill="#009FDF"/>
<path d="M217.168 57.0398H224C224.976 57.1627 225.968 57.0398 226.885 56.682C227.8 56.3244 228.613 55.7435 229.248 54.9918C230.202 53.7612 230.674 52.2254 230.576 50.6718C230.634 49.6825 230.448 48.694 230.035 47.7931C229.623 46.8921 228.995 46.1062 228.208 45.5038C226.93 44.671 225.41 44.2881 223.888 44.4158H217.088V57.0238L217.168 57.0398ZM208.16 64.6398V19.3278H237.648L235.04 26.9278H217.168V36.9598H224.448C230.336 36.9598 233.376 38.3678 235.488 40.1598C236.997 41.5022 238.183 43.1675 238.959 45.0318C239.735 46.8963 240.08 48.9116 239.968 50.9278C240.079 53.09 239.65 55.2457 238.719 57.2009C237.789 59.1559 236.387 60.8491 234.64 62.1278C231.792 64.0958 228.832 64.6558 222.8 64.6558L208.16 64.6398ZM182.032 64.6398V26.9278H168.912V19.3278H205.312L202.704 26.9278H191.104V64.6878H182.016L182.032 64.6398ZM145.712 37.4398H150.88C151.953 37.5292 153.033 37.4483 154.08 37.1998C155.153 36.8532 156.077 36.154 156.701 35.2156C157.326 34.2772 157.615 33.1551 157.52 32.0318C157.667 30.9156 157.398 29.7846 156.763 28.8547C156.128 27.9249 155.173 27.2617 154.08 26.9918C152.954 26.7251 151.796 26.6174 150.64 26.6718H145.84V37.4398H145.712ZM145.712 45.2798V57.1678H152C153.711 57.3547 155.429 56.8795 156.8 55.8398C157.445 55.2566 157.952 54.5382 158.287 53.7361C158.621 52.934 158.775 52.0679 158.736 51.1998C158.77 49.8078 158.349 48.4427 157.536 47.3118C156.208 45.5838 154.528 45.2638 151.728 45.2638H145.728L145.712 45.2798ZM160.24 40.4798V40.6398C161.784 41.2663 163.219 42.1302 164.496 43.1998C165.792 44.2719 166.815 45.6355 167.482 47.1788C168.149 48.7222 168.442 50.4017 168.336 52.0798C168.336 58.2878 165.056 62.7678 159.648 64.0798C157.488 64.6135 155.262 64.8291 153.04 64.7198H136.72V19.3278H151.248C153.56 19.2411 155.873 19.4561 158.128 19.9678C163.376 21.3758 166.816 25.0078 166.816 30.7358C166.861 32.0937 166.627 33.4465 166.133 34.7119C165.637 35.9772 164.89 37.1284 163.936 38.0958C162.92 39.1275 161.707 39.9438 160.368 40.4958H160.24V40.4798Z" fill="#0A2973"/>
</svg>
