<svg width="320" height="80" viewBox="0 0 320 80" fill="none" xmlns="http://www.w3.org/2000/svg">
<path d="M88.8123 33.6411C90.6472 33.6411 92.6898 33.7048 94.461 34.9016C95.6418 35.6835 97.0299 37.2314 97.0299 39.9918C97.0299 43.0237 95.1152 46.5979 89.8016 46.5979H85.3336V54.9115H81.4243V33.6411H88.8123V33.6411ZM88.9718 43.4864C89.8334 43.4864 91.0781 43.5182 92.0674 42.5928C92.7536 41.9706 93.1206 40.9173 93.1206 40.0238C93.1206 39.1941 92.7854 38.1888 92.0994 37.5984C91.4131 37.008 90.3282 36.7206 89.1154 36.7206H85.3336V43.4864H88.9718V43.4864ZM100.636 40.7099C101.721 39.6886 103.333 38.795 105.743 38.795C108.168 38.795 109.78 39.6886 110.865 40.7099C112.476 42.2258 113.306 44.5874 113.306 46.997C113.306 49.4064 112.476 51.768 110.865 53.2838C109.78 54.3051 108.168 55.2146 105.743 55.2146C103.333 55.2146 101.721 54.3051 100.636 53.2838C99.0248 51.768 98.195 49.4064 98.195 46.997C98.179 44.5715 99.0248 42.2258 100.636 40.7099V40.7099ZM103.269 51.4648C103.604 51.8637 104.386 52.6136 105.743 52.6136C107.115 52.6136 107.881 51.8797 108.216 51.4648C108.471 51.1936 109.397 49.949 109.397 46.997C109.397 44.045 108.471 42.8162 108.216 42.529C107.881 42.1301 107.099 41.3802 105.743 41.3802C104.386 41.3802 103.604 42.1141 103.269 42.529C103.03 42.8162 102.088 44.045 102.088 46.997C102.088 49.933 103.03 51.1776 103.269 51.4648ZM125.672 44.8906C125.609 44.0928 125.305 43.1514 124.891 42.561C124.508 42.0024 123.774 41.3802 122.529 41.3802C121.316 41.3802 120.518 42.0024 120.024 42.8322C119.242 44.1086 119.194 46.0874 119.194 46.997C119.194 48.449 119.401 50.1883 120.024 51.1776C120.423 51.7998 121.236 52.5978 122.529 52.5978C123.454 52.5978 124.236 52.2307 124.827 51.417C125.289 50.7627 125.609 49.8371 125.656 49.0234L128.944 49.4224C128.752 50.8744 128.114 52.5019 126.965 53.5392C126.008 54.4008 124.508 55.1827 122.401 55.1827C120.056 55.1827 118.524 54.2573 117.63 53.4115C116.417 52.2626 115.269 50.2202 115.269 46.997C115.269 43.997 116.29 42.1939 117.104 41.2365C118.252 39.8642 120.199 38.7632 122.497 38.7632C124.46 38.7632 126.071 39.4493 127.077 40.5026C128.098 41.5237 128.72 43.0715 128.944 44.4598L125.672 44.8906V44.8906ZM141.055 44.8906C140.991 44.0928 140.688 43.1514 140.273 42.561C139.906 42.0024 139.156 41.3802 137.911 41.3802C136.699 41.3802 135.901 42.0024 135.406 42.8322C134.64 44.1086 134.576 46.0874 134.576 46.997C134.576 48.449 134.8 50.1883 135.406 51.1776C135.805 51.7998 136.619 52.5978 137.911 52.5978C138.837 52.5978 139.619 52.2307 140.209 51.417C140.672 50.7627 140.991 49.8371 141.039 49.0234L144.326 49.4224C144.151 50.8744 143.496 52.5019 142.347 53.5392C141.39 54.4008 139.906 55.1827 137.8 55.1827C135.438 55.1827 133.922 54.2573 133.029 53.4115C131.816 52.2626 130.667 50.2202 130.667 46.997C130.667 43.997 131.688 42.1939 132.502 41.2365C133.651 39.8642 135.598 38.7632 137.896 38.7632C139.842 38.7632 141.454 39.4493 142.475 40.5026C143.496 41.5237 144.119 43.0715 144.342 44.4598L141.055 44.8906V44.8906ZM160.921 50.3158C160.363 52.1669 159.246 53.252 158.32 53.9062C157.076 54.7358 155.464 55.2146 153.756 55.2146C151.618 55.2146 149.448 54.3051 148.14 52.9806C146.927 51.752 146.033 49.5978 146.033 47.0606C146.033 43.8374 147.374 41.6992 148.826 40.4866C149.672 39.7685 151.251 38.7792 153.629 38.7792C156.645 38.7792 158.56 40.1674 159.581 41.6035C160.665 43.0875 161.176 45.1619 161.176 46.965V47.683H149.959C149.959 47.8586 149.927 49.2947 150.485 50.4435C151.315 52.1829 152.847 52.6136 153.9 52.6136C154.73 52.6136 155.783 52.3584 156.661 51.4648C157.187 50.9062 157.411 50.3797 157.49 49.8851L160.921 50.3158V50.3158ZM157.267 45.3214C157.267 44.4278 157.044 43.4066 156.581 42.7205C155.99 41.8587 154.937 41.2683 153.788 41.2683C152.608 41.2683 151.586 41.8587 150.964 42.5928C150.469 43.2152 150.039 44.1725 150.039 45.3214H157.267V45.3214ZM176.478 39.0982V54.9115H172.873V41.779H168.787C168.693 43.9173 168.629 44.7789 168.565 46.2469C168.469 47.8904 168.357 51.3531 166.953 53.252C166.171 54.2731 165.213 54.6722 164.528 54.8635C164.128 54.9912 163.697 55.039 163.251 55.039C162.947 55.039 162.629 55.0072 162.325 54.9115V52.1829H162.629C163.091 52.1509 163.713 51.9115 164.112 51.5925C165.357 50.603 165.469 48.3691 165.597 46.5979C165.757 44.2683 165.789 42.88 165.803 40.7738L165.835 39.0982H176.478V39.0982ZM183.867 44.731H187.84C188.861 44.731 190.84 44.8587 192.149 46.1512C193.329 47.3 193.441 48.9117 193.441 49.7734C193.441 52.0392 192.515 53.1882 191.797 53.7786C191.542 53.9701 190.377 54.8955 188.144 54.8955H180.277V39.0982H183.867V44.731V44.731ZM183.867 52.2946H186.691C187.377 52.2946 188.112 52.2626 188.734 51.736C189.101 51.385 189.547 50.8106 189.547 49.8053C189.547 48.9437 189.293 48.2574 188.59 47.7947C187.968 47.3958 187.185 47.332 186.707 47.332H183.883V52.2946H183.867V52.2946ZM198.675 39.0982L201.595 44.013L204.627 39.0982H207.913L203.286 46.2469L208.776 54.8955H204.563L200.973 48.9437L197.19 54.8955H193.904L199.297 46.6938L194.462 39.0982H198.675V39.0982ZM211.552 40.7099C212.637 39.6886 214.249 38.795 216.657 38.795C219.083 38.795 220.696 39.6886 221.781 40.7099C223.392 42.2258 224.222 44.5874 224.222 46.997C224.222 49.4064 223.376 51.768 221.781 53.2838C220.696 54.3051 219.083 55.2146 216.657 55.2146C214.249 55.2146 212.637 54.3051 211.552 53.2838C209.941 51.768 209.11 49.4064 209.11 46.997C209.11 44.5715 209.941 42.2258 211.552 40.7099ZM214.185 51.4648C214.52 51.8637 215.302 52.6136 216.657 52.6136C218.03 52.6136 218.797 51.8797 219.147 51.4648C219.387 51.1936 220.328 49.949 220.328 46.997C220.328 44.045 219.403 42.8162 219.147 42.529C218.813 42.1301 218.03 41.3802 216.657 41.3802C215.302 41.3802 214.52 42.1141 214.185 42.529C213.929 42.8162 213.005 44.045 213.005 46.997C213.005 49.933 213.945 51.1776 214.185 51.4648ZM226.152 43.3747C226.616 41.4598 227.827 40.4067 228.689 39.8802C229.216 39.5451 230.669 38.795 233.157 38.795C234.705 38.795 236.285 39.0664 237.465 39.7206C239.205 40.6781 239.635 42.0662 239.635 43.0715C239.635 44.1566 239.109 46.231 236.413 46.5341V46.5979C237.337 46.7256 238.36 47.1245 238.982 47.7787C239.541 48.3691 239.971 49.3586 239.971 50.4117C239.971 51.9914 239.045 53.3797 237.864 54.1614C236.445 55.087 234.481 55.2146 233.03 55.2146C231.561 55.2146 229.344 55.055 227.781 53.8264C226.918 53.1403 226.104 51.9595 225.865 50.4755L229.12 49.917C229.248 50.4117 229.52 51.1616 229.886 51.5925C230.701 52.5339 231.96 52.6136 232.774 52.6136C233.589 52.6136 234.449 52.5179 235.136 52.0552C235.758 51.6243 236.062 51.0339 236.062 50.252C236.062 49.5979 235.934 49.0712 235.376 48.6085C234.657 48.0181 233.701 47.9224 232.806 47.9224H231.163V45.497H232.806C233.429 45.497 234.321 45.3693 234.817 45.1299C235.472 44.7949 235.838 44.2363 235.838 43.3269C235.838 42.8322 235.646 42.3534 235.184 41.9864C234.465 41.396 233.445 41.3642 232.918 41.3642C232.2 41.3642 231.147 41.4598 230.285 42.1939C229.918 42.4971 229.424 43.0875 229.264 44.013L226.152 43.3747V43.3747ZM258.369 37.359H248.109V42.0662H252.672C254.317 42.0662 255.896 42.1939 257.507 43.3109C259.088 44.396 260.077 46.0075 260.077 48.3373C260.077 50.5074 259.262 52.119 258.241 53.1402C256.694 54.688 254.923 54.9115 253.072 54.9115H243.147V33.6411H258.369V37.359ZM248.109 51.1776H252.113C252.864 51.1776 253.55 51.1456 254.253 50.4275C254.939 49.7414 255.033 48.9755 255.033 48.3851C255.033 47.7149 254.843 47.0288 254.253 46.4384C253.55 45.7363 252.64 45.6565 251.987 45.6565H248.109V51.1776V51.1776ZM262.63 43.4864C263.125 41.3482 264.512 40.263 265.358 39.7685C266.587 39.0504 268.23 38.7792 270.289 38.7792C272.889 38.7792 275.523 39.1142 276.704 41.5715C277.326 42.8482 277.262 44.2045 277.262 45.3853V51.4966C277.262 52.7733 277.437 53.9541 277.725 54.9115H273.225C273.097 54.2891 273.001 53.4594 272.985 52.4062C272.395 53.4594 270.958 55.2306 267.688 55.2306C266.235 55.2306 264.736 54.8635 263.715 54.0179C262.725 53.204 262.102 51.9115 262.102 50.4914C262.102 48.9117 262.789 47.0128 265.486 45.8958C267.225 45.1778 270.049 44.9384 271.31 44.8746L272.793 44.8109V44.4757C272.793 44.0448 272.761 43.1194 272.331 42.6088C271.741 41.9226 270.56 41.8907 270.097 41.8907C269.459 41.8907 268.677 41.9546 268.022 42.3534C267.624 42.5928 267.097 43.1034 266.905 43.9651L262.63 43.4864V43.4864ZM271.406 47.4277C269.857 47.5554 268.31 47.7149 267.432 48.784C267.193 49.0872 266.937 49.5659 266.937 50.2042C266.937 50.8904 267.273 51.3531 267.624 51.5925C268.054 51.9275 268.709 52.087 269.331 52.087C270.257 52.087 271.342 51.6882 271.965 50.9382C272.061 50.8424 272.793 49.917 272.793 48.1139V47.2842L271.406 47.4277ZM285.464 39.0982V45.0182H290.457V39.0982H295.07V54.8955H290.457V48.2574H285.464V54.8955H280.853V39.0982H285.464V39.0982ZM303.288 39.0982V45.1778H304.533C305.872 45.1778 306.43 44.5235 306.766 43.8056C307.421 42.4173 307.389 41.3322 307.979 40.2472C308.441 39.3854 309.064 39.1621 309.462 39.0982H313.277C312.782 39.6248 312.35 40.2472 312.064 40.8056C311.569 41.8269 311.107 43.5024 310.819 44.2205C310.453 45.2098 309.83 46.199 308.249 46.3267V46.3906C309.096 46.5182 309.958 46.949 310.611 47.9064C311.011 48.4968 311.281 49.2627 311.729 50.4755C312.16 51.7202 312.35 52.1509 312.75 53.1083C313.069 53.8264 313.245 54.2573 313.771 54.9115H309.43C308.745 54.688 308.281 54.2253 307.723 52.6136C307.293 51.385 307.229 50.9382 306.942 50.252L306.718 49.6936C306.256 48.5128 305.633 48.2734 304.675 48.2734H303.288V54.9115H298.677V39.0982H303.288V39.0982Z" fill="#19502E"/>
<path d="M38.916 78.4001C20.1029 78.4001 4.80029 63.1135 4.80029 44.3004C4.80029 33.4977 9.76285 23.5566 18.4115 17.0463L18.7625 16.759V1.6001H38.3414V10.2008H38.916C57.7129 10.2008 73.0155 25.5033 73.0155 44.3164C73.0155 63.1135 57.7129 78.4001 38.916 78.4001Z" fill="#19502E"/>
<path d="M29.0383 44.8431L36.1391 37.87V33.1308L29.0383 40.072V44.8431ZM29.0383 27.1789L36.1391 20.1898V15.722L29.0383 22.6631V27.1789ZM29.0383 33.0191L36.1391 26.046V21.5781L29.0383 28.5192V33.0191ZM27.0119 15.7698L26.0704 14.8603V3.80225H24.9855V13.8072L24.0599 12.8817V3.80225H22.9749V11.8445L22.0335 10.919V3.80225H20.9644V14.3497L28.081 21.3228V3.80225H27.0119V15.7698ZM29.0383 38.8592L36.1391 31.8861V27.4183L29.0383 34.3594V38.8592ZM20.9644 37.87L28.081 44.8431V40.072L20.9644 33.1308V37.87V37.87ZM35.07 10.919L34.1285 11.8445V3.80225H33.0594V12.8976L32.118 13.8072V3.80225H31.0488V14.8443L30.1074 15.7698V3.80225H29.0383V21.3228L36.1391 14.3497V3.80225H35.07V10.919V10.919ZM20.9644 20.1898L28.081 27.1789V22.6631L20.9644 15.722V20.1898V20.1898ZM20.9644 26.046L28.081 33.0191V28.5192L20.9644 21.5781V26.046V26.046ZM20.9644 31.8861L28.081 38.8592V34.3594L20.9644 27.4183V31.8861V31.8861ZM63.2976 35.5722H46.0165C46.3836 34.9978 46.5909 34.3276 46.5909 33.6095C46.5909 31.5511 44.9154 29.8916 42.857 29.8916C40.7986 29.8916 39.1391 31.5671 39.1391 33.6095C39.1391 34.4234 39.3944 35.1573 39.8412 35.7637C39.5221 35.9711 39.2986 36.3381 39.2986 36.769C39.2986 37.1839 39.5221 37.5509 39.8412 37.7583C39.4104 38.3647 39.1391 39.1146 39.1391 39.9125C39.1391 41.9709 40.7986 43.6304 42.857 43.6304C44.9154 43.6304 46.5909 41.9709 46.5909 39.9125C46.5909 39.1944 46.3836 38.5082 46.0165 37.9498H58.8776V38.7317H57.6012V39.8327H58.8776V40.9656H57.6012V43.0559H58.8776V42.1144H60.7605V43.0559H62.0212V40.9656H60.7605V39.8327H62.0212V38.7317H60.7605V37.9498H63.2976C63.7924 37.9498 64.1912 37.5349 64.1912 37.0402V36.4818C64.1912 35.9871 63.7764 35.5722 63.2976 35.5722V35.5722ZM44.7879 39.9125C44.7879 40.9656 43.9261 41.8272 42.857 41.8272C41.8039 41.8272 40.9423 40.9656 40.9423 39.9125C40.9423 39.5295 41.054 39.1624 41.2613 38.8592L41.7879 37.9498C41.4528 37.6626 41.2453 37.2317 41.2453 36.753C41.2453 36.2743 41.4528 35.8436 41.7879 35.5562L41.2613 34.6468C41.054 34.3436 40.9423 33.9925 40.9423 33.5936C40.9423 32.5404 41.8039 31.6788 42.857 31.6788C43.9101 31.6788 44.7879 32.5404 44.7879 33.5936C44.7879 34.3754 43.8783 36.2424 43.8783 36.2424V37.2477C43.8783 37.2637 44.7879 39.1306 44.7879 39.9125V39.9125Z" fill="#FFCB05"/>
<path d="M14.5015 33.3062V37.9497C14.5015 42.3857 16.4322 45.2418 17.5492 46.343C18.2034 46.9812 24.8095 53.4916 24.9053 53.5713C26.9637 55.5818 27.3148 56.2361 27.7775 57.385V52.247C27.7775 47.6673 25.4637 45.8961 24.2669 44.7313C21.4746 42.0186 19.6236 40.2314 18.1077 38.7314C15.2674 35.8753 14.5015 33.3062 14.5015 33.3062V33.3062ZM24.2671 56.2042C21.4906 53.4756 19.6236 51.7044 18.1237 50.2044C15.2674 47.3482 14.5175 45.4174 14.5175 45.4174V49.4225C14.5175 53.8585 16.5281 56.683 17.5493 57.8478C18.2034 58.486 24.8255 64.9644 24.9053 65.0442C26.9637 67.0548 27.3148 68.0122 27.7775 69.1452V63.7197C27.7775 59.1402 25.4479 57.369 24.2671 56.2042V56.2042Z" fill="white"/>
<path d="M38.9155 12.3867C38.405 12.3867 37.8942 12.4027 37.3837 12.4186V14.5888C37.8942 14.5568 38.389 14.5568 38.9155 14.5568C55.335 14.5568 68.643 27.8648 68.643 44.3003C68.643 60.7198 55.335 74.0278 38.9155 74.0278C22.496 74.0278 9.17208 60.7198 9.17208 44.3003C9.17208 35.1889 13.273 27.035 19.7355 21.5779V18.8014C11.9964 24.6256 7.00195 33.8804 7.00195 44.3003C7.00195 61.9166 21.2832 76.1979 38.9155 76.1979C56.5318 76.1979 70.8131 61.9166 70.8131 44.3003C70.8131 26.684 56.5318 12.3867 38.9155 12.3867Z" fill="white"/>
<path d="M61.4785 60.9591C61.9731 60.2888 62.436 59.5867 62.8827 58.8687V54.5923H61.4785V60.9591ZM65.5635 53.0285C65.7708 52.4063 65.9464 51.784 66.1059 51.1616H61.4785V52.2946H62.1806C63.4092 52.2626 64.7976 52.2467 65.5635 53.0285Z" fill="white"/>
<path d="M34.7509 51.002H33.4902V63.7194H34.7509V51.002V51.002Z" fill="white"/>
<path d="M30.6019 48.5608H34.7506C35.8197 48.5608 36.5698 48.7841 37.0005 49.199C37.4314 49.6139 37.6389 50.364 37.6389 51.4331V63.3208C37.6389 64.3899 37.4314 65.14 37.0005 65.5549C36.3463 66.2089 35.1336 66.2089 34.1283 66.2089C33.905 66.1931 33.6816 66.1931 33.4901 66.1931V71.8257C33.905 71.9056 34.3199 71.9854 34.7506 72.0492V67.4217C36.6655 67.4217 37.9101 66.7675 38.5005 65.459V72.3523H38.9154C39.1707 72.3523 39.4419 72.3523 39.6973 72.3364V51.6405C39.6973 50.5395 39.9207 49.7736 40.3355 49.3427C40.7504 48.9118 41.5003 48.6885 42.5535 48.6885C43.6226 48.6885 45.2024 48.5289 46.0162 49.3427C46.4311 49.7736 46.6224 50.5553 46.6224 51.6405V57.736H43.7823V51.2256H42.5535V72.1131C42.9683 72.0651 43.3674 72.0012 43.7823 71.9216V58.9646H46.6224V71.2673C47.2128 71.1078 47.7874 70.9163 48.3618 70.7088V59.4433C48.3618 58.1668 48.665 57.2094 49.9575 56.7785L48.5213 48.9438H51.3936L51.8723 57.4966H52.2234L52.7021 48.9438H55.7338L54.1063 56.7785C55.4626 57.2572 55.7338 58.087 55.7338 59.4433V66.7196C56.5795 66.0814 57.3773 65.4112 58.1432 64.6771V48.864H66.5685C66.6323 48.4811 66.6802 48.1141 66.728 47.7152H47.0373L47.3087 49.1352C46.6863 47.9864 45.5055 47.412 43.7663 47.412H42.5376C40.4472 47.412 39.1866 48.2417 38.692 49.9013C38.2451 48.1619 36.9208 47.3003 34.7347 47.3003H29.3413V70.6449C29.7562 70.7886 30.1711 70.9321 30.5859 71.0598V48.5608H30.6019V48.5608ZM56.7551 57.5445L55.3987 56.252L56.7551 49.231V57.5445Z" fill="white"/>
<path d="M51.4097 69.4164C51.8405 69.193 52.2713 68.9697 52.7022 68.7303V59.1084H51.4097V69.4164Z" fill="white"/>
</svg>
