<svg width="80" height="80" viewBox="0 0 80 80" fill="none" xmlns="http://www.w3.org/2000/svg">
<path d="M23.3335 66.6667H56.6668M33.3335 66.6667C51.6668 58.3334 36.0001 45.3334 43.3335 33.3334M43.3335 33.3334C43.1804 28.6205 44.4588 23.9719 47.0002 20C50.0002 16.6667 54.3335 13.6667 63.3335 13.3334C63.0002 21 61.0002 25.3334 57.6668 28.6667C54.3335 31.3334 49.6668 33 43.3335 33.3334ZM31.6668 31.3333C35.3335 34 37.6668 38.6667 39.3335 43.6667C32.6668 45 27.6668 45 23.3335 42.6667C19.3335 40.6667 15.6668 36.3333 13.3335 28.6666C22.6668 27 28.0002 28.6666 31.6668 31.3333Z" stroke="white" stroke-width="3" stroke-linejoin="round"/>
</svg>
