<svg width="80" height="80" viewBox="0 0 80 80" fill="none" xmlns="http://www.w3.org/2000/svg">
<path d="M65.0001 33.1332C68.1027 34.9209 70.7521 37.3987 72.7433 40.3747C74.7346 43.3507 76.0142 46.7451 76.4831 50.295C76.9519 53.8448 76.5975 57.455 75.4473 60.8459C74.297 64.2369 72.3817 67.3176 69.8498 69.8495C67.3178 72.3815 64.2371 74.2967 60.8462 75.447C57.4553 76.5973 53.8451 76.9517 50.2952 76.4828C46.7453 76.0139 43.351 74.7343 40.375 72.7431C37.399 70.7518 34.9212 68.1024 33.1335 64.9999M23.3335 20H26.6668V33.3334M57.6668 47.6668L60.0002 50.0002L50.6668 59.3335M50.0002 26.6667C50.0002 39.5534 39.5535 50 26.6668 50C13.7802 50 3.3335 39.5534 3.3335 26.6667C3.3335 13.7801 13.7802 3.33337 26.6668 3.33337C39.5535 3.33337 50.0002 13.7801 50.0002 26.6667Z" stroke="white" stroke-width="3" stroke-linejoin="round"/>
</svg>
