<svg width="80" height="80" viewBox="0 0 80 80" fill="none" xmlns="http://www.w3.org/2000/svg">
<path d="M23.3332 73.3333H13.3332C11.5651 73.3333 9.86937 72.6309 8.61912 71.3807C7.36888 70.1304 6.6665 68.4347 6.6665 66.6666V43.3333C6.6665 41.5652 7.36888 39.8695 8.61912 38.6192C9.86937 37.369 11.5651 36.6666 13.3332 36.6666H23.3332M46.6665 30V16.6666C46.6665 14.0145 45.6129 11.4709 43.7376 9.59556C41.8622 7.72019 39.3187 6.66663 36.6665 6.66663L23.3332 36.6666V73.3333H60.9332C62.5409 73.3515 64.1011 72.788 65.3262 71.7466C66.5513 70.7053 67.3588 69.2563 67.5998 67.6666L72.1998 37.6666C72.3449 36.7111 72.2804 35.7356 72.011 34.8075C71.7415 33.8794 71.2735 33.0209 70.6394 32.2917C70.0052 31.5624 69.2201 30.9797 68.3384 30.584C67.4567 30.1883 66.4995 29.989 65.5332 30H46.6665Z" stroke="white" stroke-width="3" stroke-linejoin="round"/>
</svg>
