<svg width="80" height="80" viewBox="0 0 80 80" fill="none" xmlns="http://www.w3.org/2000/svg">
<path d="M31.6668 51H48.3335M15.0002 51H8.3335V19C8.3335 19 41.789 19 60.8668 19C62.1093 18.9914 63.3294 19.3301 64.3896 19.978C65.4497 20.6259 66.3078 21.5571 66.8668 22.6667L69.5335 28.1C70.933 30.8821 71.6635 33.9525 71.6668 37.0667V51H65.0002M31.6668 52.6667C31.6668 57.2691 27.9359 61 23.3335 61C18.7311 61 15.0002 57.2691 15.0002 52.6667C15.0002 48.0643 18.7311 44.3334 23.3335 44.3334C27.9359 44.3334 31.6668 48.0643 31.6668 52.6667ZM65.0002 52.6667C65.0002 57.2691 61.2692 61 56.6668 61C52.0645 61 48.3335 57.2691 48.3335 52.6667C48.3335 48.0643 52.0645 44.3334 56.6668 44.3334C61.2692 44.3334 65.0002 48.0643 65.0002 52.6667Z" stroke="white" stroke-width="3" stroke-linecap="round" stroke-linejoin="round"/>
</svg>
