<svg width="80" height="80" viewBox="0 0 80 80" fill="none" xmlns="http://www.w3.org/2000/svg">
<path d="M39.9935 41.16V49.4934M39.9935 49.4934H16.6602V57.8267M39.9935 49.4934H63.3268V57.8267M39.9935 49.4934V57.8267M39.9935 57.8267H30.9935V75.8267H48.9935V57.8267H39.9935ZM53.9935 57.8267H72.3268V75.8267H53.9935V57.8267ZM7.66016 57.8267H25.6602V75.8267H7.66016V57.8267ZM40.4019 4.16003H39.5952C38.6227 4.16003 37.6899 4.54638 37.0022 5.23407C36.3146 5.92177 35.9282 6.85449 35.9282 7.82703V8.15706C35.9275 8.80012 35.7578 9.43169 35.436 9.98843C35.1142 10.5452 34.6516 11.0075 34.0947 11.329L33.3063 11.7874C32.7488 12.1092 32.1165 12.2787 31.4728 12.2787C30.8291 12.2787 30.1968 12.1092 29.6393 11.7874L29.3643 11.6407C28.5228 11.1553 27.5231 11.0236 26.5847 11.2746C25.6462 11.5255 24.8457 12.1386 24.3588 12.9792L23.9555 13.6759C23.4701 14.5174 23.3384 15.517 23.5893 16.4555C23.8403 17.3939 24.4533 18.1945 25.2939 18.6814L25.5689 18.8647C26.1232 19.1847 26.584 19.6441 26.9056 20.1973C27.2273 20.7506 27.3986 21.3784 27.4024 22.0183V22.9534C27.405 23.5996 27.2368 24.2349 26.9148 24.7952C26.5928 25.3554 26.1285 25.8206 25.5689 26.1437L25.2939 26.3087C24.4533 26.7956 23.8403 27.5961 23.5893 28.5346C23.3384 29.473 23.4701 30.4727 23.9555 31.3142L24.3588 32.0109C24.8457 32.8515 25.6462 33.4645 26.5847 33.7155C27.5231 33.9664 28.5228 33.8347 29.3643 33.3493L29.6393 33.2027C30.1968 32.8808 30.8291 32.7114 31.4728 32.7114C32.1165 32.7114 32.7488 32.8808 33.3063 33.2027L34.0947 33.661C34.6516 33.9826 35.1142 34.4449 35.436 35.0016C35.7578 35.5584 35.9275 36.1899 35.9282 36.833V37.163C35.9282 38.1356 36.3146 39.0683 37.0022 39.756C37.6899 40.4437 38.6227 40.83 39.5952 40.83H40.4019C41.3745 40.83 42.3072 40.4437 42.9949 39.756C43.6826 39.0683 44.0689 38.1356 44.0689 37.163V36.833C44.0696 36.1899 44.2394 35.5584 44.5612 35.0016C44.883 34.4449 45.3455 33.9826 45.9024 33.661L46.6908 33.2027C47.2483 32.8808 47.8807 32.7114 48.5244 32.7114C49.168 32.7114 49.8004 32.8808 50.3578 33.2027L50.6329 33.3493C51.4743 33.8347 52.474 33.9664 53.4125 33.7155C54.3509 33.4645 55.1514 32.8515 55.6383 32.0109L56.0417 31.2958C56.5271 30.4544 56.6588 29.4547 56.4078 28.5162C56.1569 27.5778 55.5438 26.7773 54.7032 26.2904L54.4282 26.1437C53.8686 25.8206 53.4043 25.3554 53.0824 24.7952C52.7604 24.2349 52.5922 23.5996 52.5947 22.9534V22.0367C52.5922 21.3905 52.7604 20.7551 53.0824 20.1949C53.4043 19.6347 53.8686 19.1694 54.4282 18.8464L54.7032 18.6814C55.5438 18.1945 56.1569 17.3939 56.4078 16.4555C56.6588 15.517 56.5271 14.5174 56.0417 13.6759L55.6383 12.9792C55.1514 12.1386 54.3509 11.5255 53.4125 11.2746C52.474 11.0236 51.4743 11.1553 50.6329 11.6407L50.3578 11.7874C49.8004 12.1092 49.168 12.2787 48.5244 12.2787C47.8807 12.2787 47.2483 12.1092 46.6908 11.7874L45.9024 11.329C45.3455 11.0075 44.883 10.5452 44.5612 9.98843C44.2394 9.43169 44.0696 8.80012 44.0689 8.15706V7.82703C44.0689 6.85449 43.6826 5.92177 42.9949 5.23407C42.3072 4.54638 41.3745 4.16003 40.4019 4.16003ZM45.4991 22.495C45.4991 25.5329 43.0364 27.9955 39.9986 27.9955C36.9607 27.9955 34.4981 25.5329 34.4981 22.495C34.4981 19.4572 36.9607 16.9945 39.9986 16.9945C43.0364 16.9945 45.4991 19.4572 45.4991 22.495Z" stroke="white" stroke-width="3" stroke-linecap="round" stroke-linejoin="round"/>
</svg>
